# xmcd
#
# Track frame offsets:
#	150
#	17308
#	35912
#	51455
#	68834
#	83386
#	95285
#	113763
#	128642
#	144794
#	158547
#	176155
#	191659
#	208171
#	224379
#	241435
#	256306
#	271999
#	287599
#	302082
#	316960
#	331593
#
# Disc length: 4669 seconds
#
# Revision: 1
# Processed by: cddbd v1.5.1PL2 Copyright (c) Steve Scherf et al.
# Submitted via: audiograbber 1.83.01
#
DISCID=30123b16
DTITLE=Various Artist - ERG NCT 145
DYEAR=2006
DGENRE=Country
TTITLE0=Pat Green - Feels Just Like It Should
TTITLE1=Aaron Pritchett - Hold My Beer
TTITLE2=Keith Urban - Live To Love Another Day
TTITLE3=Brooks and Dunn - Building Bridges
TTITLE4=Danielle Peck - Findin' A Good Man
TTITLE5=Sawyer Peck - Keep Your Hands To Yourself
TTITLE6=Mark Willis - Hank
TTITLE7=Gord Bamford - I Would For You
TTITLE8=Sonny Burgess - More I'm Around Some People, The (The More i Like My Do
TTITLE8=g)
TTITLE9=Damian Marshall - Why Don't We
TTITLE10=Carolyn Dawn Johnson - Crybaby
TTITLE11=Clint Black - Heartaches
TTITLE12=Brad Johnner - I'd Rather Be Lucky
TTITLE13=Sammy Kershaw - Tennessee Girl
TTITLE14=Bomshel - Ain't My Day To Care
TTITLE15=Pirates Of Mississippi - Drinkin' Money (TGI Party Time)
TTITLE16=Brian McComas - Good Good Lovin'
TTITLE17=Honeybrowne - Take Me Home Right Now
TTITLE18=Jamey Johnson - Rebelious
TTITLE19=Deryl Dodd - I'm Not Home Right Now
TTITLE20=Luke Strickland - Does That Make Me Bad
TTITLE21=Todd Fritsch - I Don't Live Here Anymore
EXTD=
EXTT0=
EXTT1=
EXTT2=
EXTT3=
EXTT4=
EXTT5=
EXTT6=
EXTT7=
EXTT8=
EXTT9=
EXTT10=
EXTT11=
EXTT12=
EXTT13=
EXTT14=
EXTT15=
EXTT16=
EXTT17=
EXTT18=
EXTT19=
EXTT20=
EXTT21=
PLAYORDER=
